<svg xmlns="http://www.w3.org/2000/svg" viewBox="0 0 1600 150" fill="none">
  <defs>
    <linearGradient id="tapeWhite" x1="54" y1="116" x2="1546" y2="45" gradientUnits="userSpaceOnUse">
      <stop offset="0" stop-color="#fffaf0"/>
      <stop offset=".5" stop-color="#ffffff"/>
      <stop offset="1" stop-color="#fff7df"/>
    </linearGradient>
    <filter id="softLift" x="0" y="0" width="1600" height="150" color-interpolation-filters="sRGB">
      <feDropShadow dx="0" dy="5" stdDeviation="8" flood-color="#c7a23a" flood-opacity=".14"/>
      <feDropShadow dx="0" dy="1" stdDeviation="1" flood-color="#1a1914" flood-opacity=".10"/>
    </filter>
  </defs>

  <g filter="url(#softLift)">
    <path
      d="M64 92 C250 78 430 66 595 78 C750 90 790 116 942 108 C1090 100 1125 76 1290 76 C1410 76 1490 94 1528 80"
      stroke="#d8d1bf"
      stroke-width="38"
      stroke-linecap="round"
      stroke-linejoin="round"
      opacity=".65"
    />
    <path
      d="M64 92 C250 78 430 66 595 78 C750 90 790 116 942 108 C1090 100 1125 76 1290 76 C1410 76 1490 94 1528 80"
      stroke="url(#tapeWhite)"
      stroke-width="34"
      stroke-linecap="round"
      stroke-linejoin="round"
    />

    <circle cx="64" cy="92" r="35" fill="#d8d1bf" opacity=".65"/>
    <circle cx="64" cy="92" r="31" fill="url(#tapeWhite)"/>
    <circle cx="64" cy="92" r="12" fill="#191814"/>

    <g stroke="#191814" stroke-width="2.4" stroke-linecap="round">
      <line x1="161.8" y1="70.9" x2="163.7" y2="98.8" />
      <line x1="189.8" y1="74.5" x2="190.9" y2="91.5" />
      <line x1="214.7" y1="70.4" x2="216.0" y2="92.4" />
      <line x1="242.2" y1="71.3" x2="243.2" y2="88.2" />
      <line x1="266.9" y1="67.4" x2="268.0" y2="89.4" />
      <line x1="293.9" y1="63.1" x2="295.2" y2="91.0" />
      <line x1="318.6" y1="65.0" x2="319.5" y2="87.0" />
      <line x1="345.6" y1="66.5" x2="346.2" y2="83.4" />
      <line x1="372.2" y1="63.1" x2="372.8" y2="85.1" />
      <line x1="396.5" y1="65.1" x2="396.8" y2="82.1" />
      <line x1="422.8" y1="59.2" x2="423.1" y2="87.2" />
      <line x1="449.1" y1="64.6" x2="449.1" y2="81.6" />
      <line x1="475.2" y1="62.2" x2="474.9" y2="84.2" />
      <line x1="501.0" y1="65.1" x2="500.6" y2="82.1" />
      <line x1="526.8" y1="63.4" x2="526.0" y2="85.4" />
      <line x1="554.7" y1="61.5" x2="553.3" y2="89.5" />
      <line x1="579.8" y1="65.9" x2="578.4" y2="87.9" />
      <line x1="606.2" y1="70.4" x2="604.7" y2="87.3" />
      <line x1="632.1" y1="70.3" x2="629.9" y2="92.2" />
      <line x1="657.3" y1="75.6" x2="655.3" y2="92.4" />
      <line x1="684.6" y1="73.5" x2="680.8" y2="101.3" />
      <line x1="709.8" y1="82.7" x2="707.3" y2="99.5" />
      <line x1="735.7" y1="84.2" x2="732.3" y2="105.9" />
      <line x1="760.9" y1="90.6" x2="758.4" y2="107.4" />
      <line x1="787.6" y1="91.9" x2="784.8" y2="113.7" />
      <line x1="813.4" y1="91.8" x2="810.6" y2="119.7" />
      <line x1="838.3" y1="96.9" x2="836.9" y2="118.9" />
      <line x1="864.0" y1="100.6" x2="863.4" y2="117.6" />
      <line x1="888.7" y1="98.5" x2="888.7" y2="120.5" />
      <line x1="915.8" y1="100.6" x2="916.3" y2="117.6" />
      <line x1="941.3" y1="94.0" x2="942.7" y2="122.0" />
      <line x1="966.6" y1="97.9" x2="967.8" y2="114.9" />
      <line x1="992.7" y1="93.3" x2="994.8" y2="115.2" />
      <line x1="1018.5" y1="93.1" x2="1020.5" y2="110.0" />
      <line x1="1043.2" y1="87.6" x2="1046.1" y2="109.4" />
      <line x1="1068.8" y1="80.9" x2="1072.8" y2="108.6" />
      <line x1="1094.3" y1="80.2" x2="1097.5" y2="101.9" />
      <line x1="1121.0" y1="78.8" x2="1123.3" y2="95.6" />
      <line x1="1146.7" y1="72.9" x2="1149.3" y2="94.7" />
      <line x1="1173.3" y1="72.5" x2="1174.9" y2="89.5" />
      <line x1="1198.3" y1="65.0" x2="1200.3" y2="92.9" />
      <line x1="1224.8" y1="68.9" x2="1225.6" y2="85.9" />
      <line x1="1251.5" y1="65.5" x2="1252.1" y2="87.5" />
      <line x1="1276.7" y1="67.6" x2="1276.8" y2="84.6" />
      <line x1="1303.1" y1="65.1" x2="1302.9" y2="87.1" />
      <line x1="1330.0" y1="62.6" x2="1329.1" y2="90.6" />
      <line x1="1356.6" y1="66.7" x2="1355.5" y2="88.7" />
      <line x1="1381.5" y1="70.6" x2="1380.4" y2="87.6" />
      <line x1="1408.7" y1="70.0" x2="1407.1" y2="91.9" />
      <line x1="1434.3" y1="74.3" x2="1433.1" y2="91.3" />
      <line x1="1459.8" y1="70.5" x2="1458.3" y2="98.4" />
    </g>

    <path
      d="M1528 12 C1494 12 1469 36 1469 69 C1469 110 1528 146 1528 146 C1528 146 1587 110 1587 69 C1587 36 1562 12 1528 12 Z"
      fill="#d8d1bf"
      opacity=".65"
    />
    <path
      d="M1528 16 C1497 16 1475 38 1475 69 C1475 106 1528 139 1528 139 C1528 139 1581 106 1581 69 C1581 38 1559 16 1528 16 Z"
      fill="url(#tapeWhite)"
    />
    <circle cx="1528" cy="68" r="18" fill="#fffdf8"/>
  </g>
</svg>
